<svg xmlns="http://www.w3.org/2000/svg" xmlns:xlink="http://www.w3.org/1999/xlink" width="500" zoomAndPan="magnify" viewBox="0 0 375 374.999991" height="500" preserveAspectRatio="xMidYMid meet" version="1.0"><defs><g/><clipPath id="61b5dbf978"><path d="M 295 145 L 330 145 L 330 190 L 295 190 Z M 295 145 " clip-rule="nonzero"/></clipPath><clipPath id="e1ccf8265d"><path d="M 303.441406 139.800781 L 337.46875 160.347656 L 317.308594 193.734375 L 283.28125 173.1875 Z M 303.441406 139.800781 " clip-rule="nonzero"/></clipPath><clipPath id="f436e84b55"><path d="M 303.441406 139.800781 L 337.46875 160.347656 L 317.308594 193.734375 L 283.28125 173.1875 Z M 303.441406 139.800781 " clip-rule="nonzero"/></clipPath></defs><rect x="-37.5" width="450" fill="#ffffff" y="-37.499999" height="449.999989" fill-opacity="1"/><rect x="-37.5" width="450" fill="#ffffff" y="-37.499999" height="449.999989" fill-opacity="1"/><g fill="#f8534b" fill-opacity="1"><g transform="translate(193.520821, 218.196886)"><g><path d="M 10.90625 0 L 3.5625 0 L 3.5625 -49.015625 L 10.90625 -49.015625 L 10.90625 -27.78125 L 35 -27.78125 L 35 -49.015625 L 42.34375 -49.015625 L 42.34375 0 L 35 0 L 35 -21.359375 L 10.90625 -21.359375 Z M 10.90625 0 "/></g></g></g><g fill="#f8534b" fill-opacity="1"><g transform="translate(239.421583, 218.196886)"><g><path d="M 7 -40.671875 C 5.800781 -40.671875 4.789062 -41.082031 3.96875 -41.90625 C 3.144531 -42.726562 2.734375 -43.742188 2.734375 -44.953125 C 2.734375 -46.109375 3.148438 -47.097656 3.984375 -47.921875 C 4.816406 -48.742188 5.820312 -49.15625 7 -49.15625 C 8.164062 -49.15625 9.144531 -48.742188 9.9375 -47.921875 C 10.738281 -47.097656 11.140625 -46.109375 11.140625 -44.953125 C 11.140625 -43.742188 10.738281 -42.726562 9.9375 -41.90625 C 9.144531 -41.082031 8.164062 -40.671875 7 -40.671875 Z M 10.5 -35.6875 L 10.5 0 L 3.421875 0 L 3.421875 -35.6875 Z M 10.5 -35.6875 "/></g></g></g><g fill="#f8534b" fill-opacity="1"><g transform="translate(253.331944, 218.196886)"><g><path d="M 16.09375 0 C 13.425781 0 11.347656 -0.703125 9.859375 -2.109375 C 8.367188 -3.523438 7.625 -5.382812 7.625 -7.6875 L 7.625 -29.46875 L 0.859375 -29.46875 L 0.859375 -35.6875 L 7.625 -35.6875 L 7.625 -46.21875 L 14.703125 -46.21875 L 14.703125 -35.6875 L 22.90625 -35.6875 L 22.90625 -29.46875 L 14.703125 -29.46875 L 14.703125 -9.234375 C 14.703125 -8.273438 15.007812 -7.53125 15.625 -7 C 16.238281 -6.476562 17.09375 -6.21875 18.1875 -6.21875 L 22.90625 -6.21875 L 22.90625 0 Z M 16.09375 0 "/></g></g></g><g fill="#f8534b" fill-opacity="1"><g transform="translate(277.051322, 218.196886)"><g><path d="M 16.890625 0.78125 C 12.671875 0.78125 9.175781 -0.316406 6.40625 -2.515625 C 3.632812 -4.710938 1.921875 -7.566406 1.265625 -11.078125 L 8.0625 -11.078125 C 8.476562 -9.085938 9.476562 -7.554688 11.0625 -6.484375 C 12.644531 -5.421875 14.5625 -4.890625 16.8125 -4.890625 C 18.726562 -4.890625 20.242188 -5.304688 21.359375 -6.140625 C 22.472656 -6.972656 23.03125 -8.070312 23.03125 -9.4375 C 23.03125 -11.625 21.390625 -13.171875 18.109375 -14.078125 L 11.546875 -15.6875 C 5.097656 -17.332031 1.875 -20.691406 1.875 -25.765625 C 1.875 -28.984375 3.039062 -31.570312 5.375 -33.53125 C 7.71875 -35.488281 10.710938 -36.46875 14.359375 -36.46875 C 18.410156 -36.46875 21.757812 -35.363281 24.40625 -33.15625 C 27.050781 -30.945312 28.625 -28.109375 29.125 -24.640625 L 22.3125 -24.640625 C 21.90625 -26.578125 20.941406 -28.085938 19.421875 -29.171875 C 17.910156 -30.253906 16.195312 -30.796875 14.28125 -30.796875 C 12.601562 -30.796875 11.269531 -30.390625 10.28125 -29.578125 C 9.300781 -28.773438 8.8125 -27.734375 8.8125 -26.453125 C 8.8125 -24.242188 10.523438 -22.707031 13.953125 -21.84375 L 20.09375 -20.234375 C 26.675781 -18.566406 29.96875 -15.160156 29.96875 -10.015625 C 29.96875 -6.890625 28.765625 -4.304688 26.359375 -2.265625 C 23.960938 -0.234375 20.804688 0.78125 16.890625 0.78125 Z M 16.890625 0.78125 "/></g></g></g><g fill="#000000" fill-opacity="1"><g transform="translate(37.500002, 218.196914)"><g><path d="M 8.890625 -18.421875 C 8.890625 -14.140625 10.140625 -10.675781 12.640625 -8.03125 C 15.148438 -5.382812 18.304688 -4.0625 22.109375 -4.0625 C 25.921875 -4.0625 29.113281 -5.394531 31.6875 -8.0625 C 34.257812 -10.726562 35.546875 -14.179688 35.546875 -18.421875 L 35.546875 -49.015625 L 40.8125 -49.015625 L 40.8125 0 L 35.546875 0 L 35.546875 -5.953125 C 33.929688 -3.828125 31.9375 -2.1875 29.5625 -1.03125 C 27.195312 0.113281 24.597656 0.6875 21.765625 0.6875 C 18.398438 0.6875 15.34375 -0.0820312 12.59375 -1.625 C 9.851562 -3.164062 7.671875 -5.378906 6.046875 -8.265625 C 4.429688 -11.160156 3.625 -14.46875 3.625 -18.1875 L 3.625 -49.015625 L 8.890625 -49.015625 Z M 8.890625 -18.421875 "/></g></g></g><g fill="#000000" fill-opacity="1"><g transform="translate(82.272891, 218.196914)"><g><path d="M 3.625 0 L 3.625 -49.015625 L 8.6875 -49.015625 L 8.6875 -29.1875 C 10.320312 -31.257812 12.320312 -32.875 14.6875 -34.03125 C 17.0625 -35.195312 19.628906 -35.78125 22.390625 -35.78125 C 25.710938 -35.78125 28.773438 -34.972656 31.578125 -33.359375 C 34.378906 -31.742188 36.59375 -29.539062 38.21875 -26.75 C 39.851562 -23.957031 40.671875 -20.894531 40.671875 -17.5625 C 40.671875 -14.21875 39.863281 -11.144531 38.25 -8.34375 C 36.632812 -5.539062 34.421875 -3.332031 31.609375 -1.71875 C 28.804688 -0.113281 25.734375 0.6875 22.390625 0.6875 C 19.609375 0.6875 17.035156 0.117188 14.671875 -1.015625 C 12.316406 -2.160156 10.320312 -3.757812 8.6875 -5.8125 L 8.6875 0 Z M 12.578125 -27.28125 C 9.929688 -24.613281 8.609375 -21.375 8.609375 -17.5625 C 8.609375 -13.757812 9.925781 -10.515625 12.5625 -7.828125 C 15.195312 -5.140625 18.378906 -3.796875 22.109375 -3.796875 C 25.867188 -3.796875 29.054688 -5.132812 31.671875 -7.8125 C 34.296875 -10.488281 35.609375 -13.738281 35.609375 -17.5625 C 35.609375 -21.375 34.289062 -24.613281 31.65625 -27.28125 C 29.03125 -29.945312 25.847656 -31.28125 22.109375 -31.28125 C 18.398438 -31.28125 15.222656 -29.945312 12.578125 -27.28125 Z M 12.578125 -27.28125 "/></g></g></g><g fill="#000000" fill-opacity="1"><g transform="translate(125.234363, 218.196914)"><g><path d="M 2.328125 -17.5625 C 2.328125 -20.875 3.101562 -23.914062 4.65625 -26.6875 C 6.21875 -29.46875 8.363281 -31.675781 11.09375 -33.3125 C 13.832031 -34.957031 16.859375 -35.78125 20.171875 -35.78125 C 22.585938 -35.78125 24.859375 -35.316406 26.984375 -34.390625 C 29.117188 -33.472656 30.945312 -32.222656 32.46875 -30.640625 C 34 -29.054688 35.203125 -27.164062 36.078125 -24.96875 C 36.953125 -22.769531 37.390625 -20.441406 37.390625 -17.984375 L 37.390625 -16.03125 L 7.34375 -16.03125 C 7.738281 -12.539062 9.191406 -9.628906 11.703125 -7.296875 C 14.222656 -4.960938 17.203125 -3.796875 20.640625 -3.796875 C 22.898438 -3.796875 24.984375 -4.296875 26.890625 -5.296875 C 28.804688 -6.296875 30.4375 -7.707031 31.78125 -9.53125 L 35.546875 -6.875 C 33.835938 -4.519531 31.695312 -2.679688 29.125 -1.359375 C 26.550781 -0.046875 23.75 0.609375 20.71875 0.609375 C 15.539062 0.609375 11.179688 -1.140625 7.640625 -4.640625 C 4.097656 -8.148438 2.328125 -12.457031 2.328125 -17.5625 Z M 20.171875 -31.375 C 17.023438 -31.375 14.265625 -30.332031 11.890625 -28.25 C 9.523438 -26.164062 8.054688 -23.492188 7.484375 -20.234375 L 32.328125 -20.234375 C 31.878906 -23.472656 30.503906 -26.140625 28.203125 -28.234375 C 25.898438 -30.328125 23.222656 -31.375 20.171875 -31.375 Z M 20.171875 -31.375 "/></g></g></g><g fill="#000000" fill-opacity="1"><g transform="translate(164.914769, 218.196914)"><g><path d="M 19.578125 -30.734375 L 16.953125 -30.734375 C 14.535156 -30.734375 12.550781 -29.820312 11 -28 C 9.457031 -26.175781 8.6875 -23.882812 8.6875 -21.125 L 8.6875 0 L 3.625 0 L 3.625 -35.140625 L 8.6875 -35.140625 L 8.6875 -30.515625 C 9.550781 -32.046875 10.707031 -33.242188 12.15625 -34.109375 C 13.601562 -34.972656 15.269531 -35.40625 17.15625 -35.40625 L 19.578125 -35.40625 Z M 19.578125 -30.734375 "/></g></g></g><g fill="#000000" fill-opacity="1"><g transform="translate(185.636715, 218.196914)"><g/></g></g><g clip-path="url(#61b5dbf978)"><g clip-path="url(#e1ccf8265d)"><g clip-path="url(#f436e84b55)"><path fill="#f8534b" d="M 329.804688 169.332031 C 329.589844 166.957031 328.441406 164.832031 326.570312 163.347656 L 323.867188 161.210938 C 322.394531 160.046875 320.554688 159.527344 318.6875 159.742188 C 318.578125 159.753906 318.464844 159.769531 318.355469 159.792969 C 318.734375 158.933594 319.085938 158.0625 319.386719 157.171875 C 320.089844 155.0625 319.910156 152.824219 318.894531 150.851562 C 317.878906 148.890625 316.160156 147.460938 314.046875 146.820312 L 312.191406 146.261719 C 311.398438 146.019531 310.605469 145.777344 309.84375 145.546875 C 308.148438 145.035156 306.355469 145.207031 304.792969 146.046875 C 303.425781 146.777344 302.382812 147.929688 301.800781 149.339844 L 300.417969 149.347656 C 298.574219 149.355469 296.964844 150.554688 296.421875 152.332031 L 296.269531 152.839844 C 295.183594 156.421875 295.257812 160.175781 296.480469 163.707031 L 297.371094 166.269531 L 295.949219 170.953125 C 295.679688 171.855469 296.070312 172.808594 296.847656 173.277344 C 296.984375 173.363281 297.136719 173.429688 297.300781 173.480469 L 304.355469 175.617188 L 304.355469 175.6875 L 301.324219 179.515625 C 300.632812 180.390625 300.785156 181.667969 301.660156 182.363281 C 301.660156 182.363281 309.664062 188.679688 309.738281 188.722656 C 310.121094 188.953125 310.566406 189.050781 311.019531 189 C 311.554688 188.9375 312.039062 188.667969 312.371094 188.246094 L 315.535156 184.246094 C 318.679688 183.042969 321.5625 181.375 324.125 179.277344 C 325.390625 178.234375 326.582031 177.085938 327.667969 175.863281 C 329.269531 174.046875 330.035156 171.722656 329.820312 169.320312 Z M 297.558594 153.238281 L 297.710938 152.730469 C 298.074219 151.523438 299.167969 150.707031 300.417969 150.703125 L 301.34375 150.695312 L 301.332031 150.742188 C 300.964844 151.949219 301.230469 153.238281 301.964844 154.1875 C 301.984375 154.707031 302.070312 157.15625 301.816406 158.894531 C 301.773438 159.171875 301.910156 159.433594 302.132812 159.570312 C 302.210938 159.613281 302.296875 159.640625 302.386719 159.660156 C 302.757812 159.714844 303.101562 159.457031 303.152344 159.085938 C 303.332031 157.859375 303.355469 156.359375 303.347656 155.3125 C 303.371094 155.328125 303.398438 155.34375 303.421875 155.359375 C 304.695312 156.128906 306.0625 156.722656 307.503906 157.144531 C 308.988281 157.574219 310.535156 157.808594 312.097656 157.835938 C 313.820312 157.859375 315.3125 156.769531 315.8125 155.132812 L 316.046875 154.367188 C 316.160156 154.007812 315.953125 153.632812 315.601562 153.519531 C 315.242188 153.414062 314.867188 153.613281 314.757812 153.964844 L 314.523438 154.730469 C 314.199219 155.792969 313.230469 156.492188 312.121094 156.476562 C 310.679688 156.460938 309.253906 156.246094 307.886719 155.84375 C 306.355469 155.402344 304.910156 154.734375 303.59375 153.871094 C 302.710938 153.296875 302.3125 152.164062 302.625 151.136719 L 302.863281 150.367188 C 303.273438 149.019531 304.179688 147.910156 305.421875 147.25 C 306.667969 146.585938 308.097656 146.441406 309.441406 146.851562 C 310.203125 147.082031 310.988281 147.320312 311.789062 147.566406 L 313.644531 148.125 C 315.40625 148.660156 316.839844 149.851562 317.683594 151.488281 C 318.53125 153.128906 318.675781 155 318.09375 156.753906 C 317.683594 157.964844 317.1875 159.167969 316.628906 160.3125 C 315.929688 160.625 315.285156 161.046875 314.71875 161.570312 L 313.378906 161.054688 C 311.652344 160.390625 309.71875 160.921875 308.566406 162.371094 L 308.234375 162.792969 C 307.011719 164.335938 306.078125 166.054688 305.4375 167.867188 L 298.609375 165.796875 L 297.738281 163.28125 C 296.605469 160.019531 296.539062 156.550781 297.546875 153.25 Z M 297.6875 172.199219 C 297.335938 172.089844 297.128906 171.710938 297.238281 171.351562 L 298.507812 167.171875 L 305.046875 169.15625 C 304.71875 170.394531 304.519531 171.667969 304.460938 172.976562 L 304.410156 174.238281 Z M 310.847656 187.671875 C 310.671875 187.691406 310.492188 187.648438 310.351562 187.53125 L 302.488281 181.316406 C 302.195312 181.082031 302.144531 180.65625 302.375 180.363281 L 305.085938 176.933594 L 314.011719 183.988281 L 311.296875 187.425781 C 311.191406 187.5625 311.023438 187.652344 310.847656 187.671875 Z M 326.640625 174.980469 C 325.605469 176.15625 324.46875 177.253906 323.253906 178.246094 C 320.789062 180.261719 318.003906 181.871094 314.980469 183.027344 L 305.699219 175.695312 L 305.808594 173.03125 C 305.957031 169.585938 307.160156 166.335938 309.300781 163.628906 L 309.636719 163.207031 C 310.414062 162.21875 311.722656 161.863281 312.898438 162.3125 L 313.761719 162.644531 L 310.910156 166.257812 C 310.675781 166.550781 310.730469 166.976562 311.023438 167.207031 C 311.308594 167.4375 311.742188 167.390625 311.972656 167.097656 L 315.035156 163.226562 C 315.035156 163.226562 315.039062 163.21875 315.042969 163.214844 C 315.984375 162.023438 317.339844 161.269531 318.84375 161.089844 C 320.355469 160.914062 321.835938 161.332031 323.035156 162.277344 L 325.734375 164.414062 C 327.320312 165.660156 328.289062 167.453125 328.46875 169.457031 C 328.648438 171.484375 328.007812 173.449219 326.652344 174.988281 Z M 326.640625 174.980469 " fill-opacity="1" fill-rule="nonzero"/></g></g></g></svg>